PathFileType	4	(X/Y/Z)	trial_0_0-299.trc
DataRate	CameraRate	NumFrames	NumMarkers	Units	OrigDataRate	OrigDataStartFrame	OrigNumFrames
60	60	4	21	m	60	0	299
Frame#	Time	RHip			RKnee			RAnkle			RBigToe			RSmallToe			RHeel			LHip			LKnee			LAnkle			LBigToe			LSmallToe			LHeel			Neck			Head			Nose			RShoulder			RElbow			RWrist			LShoulder			LElbow			LWrist		
		X1	Y1	Z1	X2	Y2	Z2	X3	Y3	Z3	X4	Y4	Z4	X5	Y5	Z5	X6	Y6	Z6	X7	Y7	Z7	X8	Y8	Z8	X9	Y9	Z9	X10	Y10	Z10	X11	Y11	Z11	X12	Y12	Z12	X13	Y13	Z13	X14	Y14	Z14	X15	Y15	Z15	X16	Y16	Z16	X17	Y17	Z17	X18	Y18	Z18	X19	Y19	Z19	X20	Y20	Z20	X21	Y21	Z21
1	0.0166666666666666	1.3696422866286535	1.1651165644847317	0.4514607181163457	1.806320023881797	1.070655920639759	0.43968116991911793	2.150763562771094	0.9276720386133213	0.3543098617087571	2.4307121216883023	1.143315035567816	0.3383727357350884	2.3996812767828386	1.0917904221812125	0.43309896727649133	2.14068922008635	0.8599872453002357	0.33979913620779134	1.3752859835463764	1.2222763730566044	0.174131146562674	1.7834306762291352	1.0740101342319652	0.17485541684490297	2.075858556080747	0.8471151412220389	0.1757432204574415	2.444576533070933	1.1881310234706746	0.16653847983501557	2.3047752672905926	1.038749378805952	0.09973841180372145	2.066674701538355	0.7156691426065108	0.18277510062463764	0.6568507986673738	1.1270261036936446	0.36253972011976127	0.32094622512840565	1.3569959057177752	0.40294142069766914	0.5498215609766524	1.5751281287231893	0.40609265376395987	0.7435796889493281	1.1166542743763723	0.5391460387079515	1.0881393726178792	1.169529097848627	0.5841426858039525	1.3971740462038114	1.4658072776914561	0.42138868076042646	0.7201528157671482	1.1386428392109569	0.16534993175678928	1.0819651210469592	1.208195367979853	0.08216869090544195	1.4386917008515032	1.6255292879395844	0.26810352987501035
2	0.0333333333333333	1.3696718799776875	1.16530608683942	0.4514403180016582	1.8060862300015867	1.0701021738929695	0.4398116170125629	2.1502432438717465	0.927563294170884	0.35444585612406615	2.4322824029794226	1.145411857393054	0.33898059426804683	2.3996806215458744	1.0902224790983932	0.43344519883606536	2.140000271591652	0.8587621719982879	0.34002609295358255	1.3753360344728736	1.2227284770789009	0.1740548156247527	1.7840575060096642	1.0755892800914535	0.17450940922207372	2.076472049371624	0.8499945923271057	0.17583437446834396	2.4460190126675365	1.1893784431086725	0.16741780750771454	2.3053616731399935	1.0389316517295804	0.09966521418902069	2.0672533593738254	0.717410701444074	0.18230860007969935	0.6568310177159207	1.1271112316170475	0.36254224549610325	0.3209207306546073	1.3569824877662806	0.4030047275550528	0.5495446658911479	1.5763256034841229	0.4054576167576246	0.7434286076193456	1.1155328503270403	0.5388220585225325	1.0881122538283021	1.1693423660409485	0.5841910632220477	1.3975002970010095	1.4657873815378646	0.4212736814573774	0.7201807967386877	1.1384487295753445	0.16537976487074724	1.081998477236761	1.208952176727649	0.08191502338628003	1.4388801348034506	1.626325673641472	0.26789859386029885
3	0.05	1.3697739042656976	1.1657121790267981	0.4513762633187596	1.8059716554114364	1.0698382594642277	0.43993437815378034	2.149694664973162	0.9275753066701931	0.35462545385340616	2.435230303569878	1.1491553008754556	0.33999331999346083	2.3996343173553845	1.0876725407402896	0.4339800372107202	2.1391730794812593	0.8572239263064911	0.34030226978316225	1.3754468462205405	1.2234608747320053	0.17392045818558938	1.7852434764824339	1.0781001879637586	0.173955663112331	2.0769980238382617	0.8533976752281855	0.17589094555150547	2.4480107274679987	1.1905206946624118	0.16877867815237474	2.3066489797067455	1.0392124554346531	0.09953930658846809	2.0678274482642927	0.7197150068043325	0.1817340069686254	0.6568030016231133	1.127206849265204	0.3625492965999254	0.32089256812676636	1.356935986830302	0.4030856515193175	0.5490428991240319	1.5781065107215875	0.40447255349916755	0.7432346094903601	1.1140722484970684	0.5383995058361943	1.0880647841239184	1.1690094317634296	0.5842786839824392	1.3978011900862122	1.4651179903353169	0.4211776836245814	0.7202220809657354	1.1381175956414018	0.1654319413569943	1.0820187760445925	1.2100246091992324	0.08146196578672632	1.4390035807700365	1.6267969566772114	0.26780678752285103
4	0.0666666666666666	1.3700287370955222	1.1663270183816548	0.45125219020935914	1.8063137096805093	1.0706796630636763	0.439945953139698	2.1496391248700606	0.9279019784376553	0.35473795724892443	2.43909852391942	1.1537769472561772	0.3410996050185192	2.3995308585646766	1.0849998027453749	0.4345002445066619	2.138886292766071	0.8565194293416802	0.340416730310295	1.3756509518193352	1.2242418529874128	0.17375217807064222	1.7867834239466305	1.080780874251252	0.1733748668987985	2.076648300298312	0.8546365264485725	0.17580527736572887	2.4496171060075795	1.1904982617653372	0.17010084259900238	2.3084655784138657	1.0394630188378353	0.09938756253691894	2.0677367726430362	0.7210392893540096	0.18150015379306353	0.6567839934454534	1.127225559779237	0.3625603002614157	0.320887309097179	1.3568284126776735	0.4031370708447949	0.548490703300649	1.579779213131843	0.4035185118393201	0.7430885106273414	1.1129352194865332	0.5380682822548637	1.088006394411729	1.168561802533863	0.584387778880727	1.397706519229852	1.4633327913230667	0.42124510345206156	0.7202654280021427	1.1377204886353205	0.1654913896722192	1.0820263006187116	1.2112047027029353	0.08086146193428695	1.4388523246628637	1.6260166714614481	0.2681018116802325
